<?xml version="1.0" ?><svg viewBox="0 0 64 64" xmlns="http://www.w3.org/2000/svg"><ellipse cx="39" cy="56.5" rx="10" ry="3.5" style="fill:#d36767"/><circle cx="22" cy="20" r="5" style="fill:#62c4c3"/><path d="M16,40.059l-4,2L9.034,35.385a4,4,0,0,1,.635-4.248L15,25H32l6-6,3,3-7,7H27v9.059l10,2,4,12-4,1-3-8-11-2L21,61H16l1-19.941v-11l-4,4Z" style="fill:#62c4c3"/><polygon points="38 13 38 3 49 8 38 13" style="fill:#d36767"/><path d="M54,57.5v-2H49.15c-.018-.039-.042-.075-.062-.113l3.109-.658-.414-1.958-4.505.954a9.342,9.342,0,0,0-1.184-.545l.942-.6-1.072-1.687-2.48,1.574q-.736-.14-1.514-.232a.982.982,0,0,0-.022-.493l-4-12a1,1,0,0,0-.752-.664L28,37.24V30h6a1,1,0,0,0,.707-.293l7-7a1,1,0,0,0,0-1.414L39,18.586V13.644L49.414,8.91a1,1,0,0,0,0-1.82l-11-5A1,1,0,0,0,37,3V18.586L31.586,24H26.46a6,6,0,1,0-8.92,0H15a1,1,0,0,0-.755.345L8.914,30.481a5.018,5.018,0,0,0-.794,5.31l2.966,6.675a1,1,0,0,0,1.361.488l3.545-1.772L15,60.95A1,1,0,0,0,16,62h5a1,1,0,0,0,.994-.89l1.881-16.875,9.388,1.707,2.379,6.346q-.575.077-1.126.18l-2.48-1.574-1.072,1.687.942.6a9.342,9.342,0,0,0-1.184.545l-4.505-.954L25.8,54.729l3.109.658c-.02.038-.044.074-.062.113H24v2h4.85c.018.039.042.075.062.113l-3.109.658.414,1.958,4.505-.954a9.342,9.342,0,0,0,1.184.545l-.942.6,1.072,1.687,2.48-1.574A23.728,23.728,0,0,0,38,60.918V62h2V60.918a23.728,23.728,0,0,0,3.484-.386l2.48,1.574,1.072-1.687-.942-.6a9.342,9.342,0,0,0,1.184-.545l4.505.954.414-1.958-3.109-.658c.02-.038.044-.074.062-.113Zm-23.375-1c0-.859,3.18-2.438,8.375-2.438s8.375,1.579,8.375,2.438S44.2,58.938,39,58.938,30.625,57.359,30.625,56.5ZM39,4.553,46.583,8,39,11.447ZM18,20a4,4,0,1,1,6.949,2.68A1.977,1.977,0,0,1,24,21H22a3.992,3.992,0,0,0,1.164,2.807A3.943,3.943,0,0,1,22,24,4,4,0,0,1,18,20ZM14.217,34.257,16,32.474v5.351Zm19.962,9.819-11-2a.981.981,0,0,0-.777.182,1,1,0,0,0-.4.691L20.105,60H17.052L18,41.06v-11a1,1,0,0,0-1.707-.707l-4,4a1,1,0,0,0-.188,1.154l2.553,5.105L12.489,40.7,9.948,34.979a3.01,3.01,0,0,1,.476-3.186L15.456,26H32a1,1,0,0,0,.707-.293L38,20.414,39.586,22l-6,6H27a1,1,0,0,0-1,1v9.06a1,1,0,0,0,.8.98l9.43,1.887L39.71,51.352l-2.087.521-2.686-7.165A1,1,0,0,0,34.179,44.076Z" style="fill:#3a4249"/></svg>