<?xml version="1.0" ?><svg data-name="Layer 1" id="Layer_1" viewBox="0 0 32 32" xmlns="http://www.w3.org/2000/svg"><path d="M23.87,24a7.75,7.75,0,0,0-.27-1.08c0-.05,0-.1-.05-.15a8.15,8.15,0,0,0-.41-1l-.06-.12a7.87,7.87,0,0,0-.59-.95,1.47,1.47,0,0,1-.1-.13A8.07,8.07,0,0,0,20.76,19l-.08-.06a8,8,0,0,0-1-.62h0a8.1,8.1,0,0,0-1.14-.48,5.16,5.16,0,0,0,.59-.56l.12-.14a4.6,4.6,0,0,0,.47-.66.83.83,0,0,0,.07-.13,4.09,4.09,0,0,0,.33-.7l.06-.13a6.28,6.28,0,0,0,.23-.85l0-.19a5.86,5.86,0,0,0,.08-.94,4.5,4.5,0,0,0-9,0,5.86,5.86,0,0,0,.08.94l0,.19a6.28,6.28,0,0,0,.23.85l.06.13a4.09,4.09,0,0,0,.33.7.83.83,0,0,0,.07.13,4.6,4.6,0,0,0,.47.66l.12.14a5.16,5.16,0,0,0,.59.56,8.1,8.1,0,0,0-1.14.48h0a8,8,0,0,0-1,.62l-.08.06a8.07,8.07,0,0,0-1.63,1.62,1.47,1.47,0,0,1-.1.13,7.87,7.87,0,0,0-.59.95l-.06.12a8.15,8.15,0,0,0-.41,1c0,.05,0,.1,0,.15A7.75,7.75,0,0,0,8.13,24a2,2,0,0,1,0,.24A8.66,8.66,0,0,0,8,25.37V28h2V25.37a5.52,5.52,0,0,1,.08-.92c0-.06,0-.11,0-.16a7.38,7.38,0,0,1,.22-.84l0-.14a6,6,0,0,1,.88-1.58.1.1,0,0,1,0-.05,5,5,0,0,1,.62-.68l0,0a6,6,0,0,1,2.52-1.38,1.37,1.37,0,0,0,.13.2l.36.35-.64,5.65a1,1,0,0,0,.28.82l.7.7a1,1,0,0,0,1.42,0l.7-.7a1,1,0,0,0,.28-.82l-.64-5.65.36-.35a1.37,1.37,0,0,0,.13-.2A6,6,0,0,1,20.06,21l0,0a5,5,0,0,1,.62.68.1.1,0,0,1,0,.05,6,6,0,0,1,.88,1.58l.05.14a7.38,7.38,0,0,1,.22.84c0,.05,0,.1,0,.16a5.52,5.52,0,0,1,.08.92V28h2V25.37a8.66,8.66,0,0,0-.09-1.16A2,2,0,0,1,23.87,24ZM16,11a2.5,2.5,0,0,1,2.5,2.49c0,1.76-1.12,3.19-2.5,3.19s-2.5-1.43-2.5-3.19A2.5,2.5,0,0,1,16,11Z"/><path d="M9.05,15.15h0l.36-.35a1.37,1.37,0,0,0,.13-.2h0a5.29,5.29,0,0,1,1.11.42,6.94,6.94,0,0,1-.17-1.52,3.94,3.94,0,0,1,.05-.69h0a.1.1,0,0,0,.05,0,5.4,5.4,0,0,1,1.88-3.44,5.46,5.46,0,0,0,.06-.82h0a4.5,4.5,0,0,0-9,0,5.45,5.45,0,0,0,2,4.3A8,8,0,0,0,0,20.37H0V23H2V20.37a6,6,0,0,1,4.44-5.78h0a1.37,1.37,0,0,0,.13.2l.36.35H7l-.64,5.64a1,1,0,0,0,.28.82l.7.7a.9.9,0,0,0,.19.15,9.1,9.1,0,0,1,2-3.31ZM8,6a2.5,2.5,0,0,1,2.5,2.49c0,1.76-1.12,3.19-2.5,3.19H8c-1.38,0-2.5-1.43-2.5-3.19A2.5,2.5,0,0,1,8,6Z"/><path d="M32,20.37a8,8,0,0,0-5.48-7.58,5.45,5.45,0,0,0,2-4.3,4.5,4.5,0,0,0-9,0h0a5.46,5.46,0,0,0,.06.82,5.4,5.4,0,0,1,1.88,3.44.1.1,0,0,0,0,0h0a3.94,3.94,0,0,1,.05.69A6.94,6.94,0,0,1,21.33,15a5.29,5.29,0,0,1,1.11-.42h0a1.37,1.37,0,0,0,.13.2l.36.35h0l-.45,4a9.1,9.1,0,0,1,2,3.31.9.9,0,0,0,.19-.15l.7-.7a1,1,0,0,0,.28-.82l-.64-5.64h0l.36-.35a1.37,1.37,0,0,0,.13-.2h0A6,6,0,0,1,30,20.37V23h2V20.37ZM24,6a2.5,2.5,0,0,1,2.5,2.49c0,1.76-1.12,3.19-2.5,3.19h0c-1.38,0-2.5-1.43-2.5-3.19A2.5,2.5,0,0,1,24,6Z"/></svg>